<mxfile host="app.diagrams.net" modified="2024-05-28T14:40:19.062Z" agent="Mozilla/5.0 (Windows NT 10.0; Win64; x64) AppleWebKit/537.36 (KHTML, like Gecko) Chrome/121.0.0.0 Safari/537.36" etag="xFop5GnsgJsXDkFzcHDW" version="24.4.9" type="device" pages="9">
  <diagram name="Página-1" id="ZiPFj5SrXCE3NFDfiWm8">
    <mxGraphModel dx="1434" dy="782" grid="1" gridSize="10" guides="1" tooltips="1" connect="1" arrows="1" fold="1" page="1" pageScale="1" pageWidth="827" pageHeight="1169" math="0" shadow="0">
      <root>
        <mxCell id="0" />
        <mxCell id="1" parent="0" />
        <mxCell id="DqxcN8GwO106yfGj2cxF-53" value="" style="edgeStyle=orthogonalEdgeStyle;rounded=0;orthogonalLoop=1;jettySize=auto;html=1;" parent="1" source="DqxcN8GwO106yfGj2cxF-1" target="DqxcN8GwO106yfGj2cxF-51" edge="1">
          <mxGeometry relative="1" as="geometry" />
        </mxCell>
        <mxCell id="DqxcN8GwO106yfGj2cxF-1" value="Início" style="ellipse;whiteSpace=wrap;html=1;" parent="1" vertex="1">
          <mxGeometry x="50" y="20" width="110" height="60" as="geometry" />
        </mxCell>
        <mxCell id="DqxcN8GwO106yfGj2cxF-59" value="" style="edgeStyle=orthogonalEdgeStyle;rounded=0;orthogonalLoop=1;jettySize=auto;html=1;" parent="1" source="DqxcN8GwO106yfGj2cxF-7" target="DqxcN8GwO106yfGj2cxF-58" edge="1">
          <mxGeometry relative="1" as="geometry" />
        </mxCell>
        <mxCell id="DqxcN8GwO106yfGj2cxF-7" value="cadastrar cliente" style="rounded=0;whiteSpace=wrap;html=1;" parent="1" vertex="1">
          <mxGeometry x="50" y="230" width="115" height="50" as="geometry" />
        </mxCell>
        <mxCell id="DqxcN8GwO106yfGj2cxF-65" value="" style="edgeStyle=orthogonalEdgeStyle;rounded=0;orthogonalLoop=1;jettySize=auto;html=1;" parent="1" source="DqxcN8GwO106yfGj2cxF-20" target="DqxcN8GwO106yfGj2cxF-63" edge="1">
          <mxGeometry relative="1" as="geometry" />
        </mxCell>
        <mxCell id="DqxcN8GwO106yfGj2cxF-20" value="buscar cliente" style="rounded=0;whiteSpace=wrap;html=1;" parent="1" vertex="1">
          <mxGeometry x="220" y="125" width="112.5" height="50" as="geometry" />
        </mxCell>
        <mxCell id="DqxcN8GwO106yfGj2cxF-47" value="cadastro realizado" style="rounded=0;whiteSpace=wrap;html=1;" parent="1" vertex="1">
          <mxGeometry x="51.88" y="430" width="111.25" height="50" as="geometry" />
        </mxCell>
        <mxCell id="DqxcN8GwO106yfGj2cxF-55" value="sim" style="edgeStyle=orthogonalEdgeStyle;rounded=0;orthogonalLoop=1;jettySize=auto;html=1;" parent="1" source="DqxcN8GwO106yfGj2cxF-51" target="DqxcN8GwO106yfGj2cxF-20" edge="1">
          <mxGeometry relative="1" as="geometry" />
        </mxCell>
        <mxCell id="DqxcN8GwO106yfGj2cxF-57" value="não" style="edgeStyle=orthogonalEdgeStyle;rounded=0;orthogonalLoop=1;jettySize=auto;html=1;" parent="1" source="DqxcN8GwO106yfGj2cxF-51" edge="1">
          <mxGeometry relative="1" as="geometry">
            <mxPoint x="105.5" y="230" as="targetPoint" />
          </mxGeometry>
        </mxCell>
        <mxCell id="DqxcN8GwO106yfGj2cxF-51" value="cliente cadastrado" style="rhombus;whiteSpace=wrap;html=1;" parent="1" vertex="1">
          <mxGeometry x="65" y="110" width="80" height="80" as="geometry" />
        </mxCell>
        <mxCell id="DqxcN8GwO106yfGj2cxF-61" value="não" style="edgeStyle=orthogonalEdgeStyle;rounded=0;orthogonalLoop=1;jettySize=auto;html=1;" parent="1" source="DqxcN8GwO106yfGj2cxF-58" target="DqxcN8GwO106yfGj2cxF-60" edge="1">
          <mxGeometry relative="1" as="geometry" />
        </mxCell>
        <mxCell id="DqxcN8GwO106yfGj2cxF-64" value="sim" style="edgeStyle=orthogonalEdgeStyle;rounded=0;orthogonalLoop=1;jettySize=auto;html=1;" parent="1" source="DqxcN8GwO106yfGj2cxF-58" target="DqxcN8GwO106yfGj2cxF-47" edge="1">
          <mxGeometry relative="1" as="geometry" />
        </mxCell>
        <mxCell id="DqxcN8GwO106yfGj2cxF-58" value="dados válidos?" style="rhombus;whiteSpace=wrap;html=1;" parent="1" vertex="1">
          <mxGeometry x="67.5" y="320" width="80" height="80" as="geometry" />
        </mxCell>
        <mxCell id="DqxcN8GwO106yfGj2cxF-62" style="edgeStyle=orthogonalEdgeStyle;rounded=0;orthogonalLoop=1;jettySize=auto;html=1;entryX=1;entryY=0.5;entryDx=0;entryDy=0;" parent="1" source="DqxcN8GwO106yfGj2cxF-60" target="DqxcN8GwO106yfGj2cxF-7" edge="1">
          <mxGeometry relative="1" as="geometry">
            <mxPoint x="245" y="250" as="targetPoint" />
            <Array as="points">
              <mxPoint x="246" y="255" />
            </Array>
          </mxGeometry>
        </mxCell>
        <mxCell id="DqxcN8GwO106yfGj2cxF-60" value="mostrar erro&amp;nbsp;" style="rounded=0;whiteSpace=wrap;html=1;" parent="1" vertex="1">
          <mxGeometry x="190" y="335" width="110" height="50" as="geometry" />
        </mxCell>
        <mxCell id="DqxcN8GwO106yfGj2cxF-67" value="não" style="edgeStyle=orthogonalEdgeStyle;rounded=0;orthogonalLoop=1;jettySize=auto;html=1;entryX=0.5;entryY=0;entryDx=0;entryDy=0;" parent="1" source="DqxcN8GwO106yfGj2cxF-63" target="DqxcN8GwO106yfGj2cxF-20" edge="1">
          <mxGeometry relative="1" as="geometry">
            <Array as="points">
              <mxPoint x="414" y="90" />
              <mxPoint x="276" y="90" />
            </Array>
          </mxGeometry>
        </mxCell>
        <mxCell id="DqxcN8GwO106yfGj2cxF-70" value="sim" style="edgeStyle=orthogonalEdgeStyle;rounded=0;orthogonalLoop=1;jettySize=auto;html=1;" parent="1" source="DqxcN8GwO106yfGj2cxF-63" target="DqxcN8GwO106yfGj2cxF-69" edge="1">
          <mxGeometry relative="1" as="geometry" />
        </mxCell>
        <mxCell id="DqxcN8GwO106yfGj2cxF-63" value="cliente encontrado" style="rhombus;whiteSpace=wrap;html=1;" parent="1" vertex="1">
          <mxGeometry x="373.5" y="110" width="80" height="80" as="geometry" />
        </mxCell>
        <mxCell id="DqxcN8GwO106yfGj2cxF-68" style="edgeStyle=orthogonalEdgeStyle;rounded=0;orthogonalLoop=1;jettySize=auto;html=1;entryX=0;entryY=0.5;entryDx=0;entryDy=0;" parent="1" source="DqxcN8GwO106yfGj2cxF-47" target="DqxcN8GwO106yfGj2cxF-51" edge="1">
          <mxGeometry relative="1" as="geometry">
            <mxPoint x="60" y="150" as="targetPoint" />
            <Array as="points">
              <mxPoint x="20" y="455" />
              <mxPoint x="20" y="150" />
            </Array>
          </mxGeometry>
        </mxCell>
        <mxCell id="DqxcN8GwO106yfGj2cxF-74" value="não" style="edgeStyle=orthogonalEdgeStyle;rounded=0;orthogonalLoop=1;jettySize=auto;html=1;" parent="1" source="DqxcN8GwO106yfGj2cxF-69" target="DqxcN8GwO106yfGj2cxF-73" edge="1">
          <mxGeometry relative="1" as="geometry" />
        </mxCell>
        <mxCell id="I3Eb_-N1sQP1QvbI4rdD-4" value="sim" style="edgeStyle=orthogonalEdgeStyle;rounded=0;orthogonalLoop=1;jettySize=auto;html=1;" edge="1" parent="1" source="DqxcN8GwO106yfGj2cxF-69" target="I3Eb_-N1sQP1QvbI4rdD-3">
          <mxGeometry relative="1" as="geometry">
            <Array as="points">
              <mxPoint x="540" y="200" />
              <mxPoint x="540" y="200" />
            </Array>
          </mxGeometry>
        </mxCell>
        <mxCell id="DqxcN8GwO106yfGj2cxF-69" value="apagar?" style="rhombus;whiteSpace=wrap;html=1;" parent="1" vertex="1">
          <mxGeometry x="500" y="110" width="80" height="80" as="geometry" />
        </mxCell>
        <mxCell id="DqxcN8GwO106yfGj2cxF-76" value="sim" style="edgeStyle=orthogonalEdgeStyle;rounded=0;orthogonalLoop=1;jettySize=auto;html=1;" parent="1" source="DqxcN8GwO106yfGj2cxF-73" target="DqxcN8GwO106yfGj2cxF-75" edge="1">
          <mxGeometry relative="1" as="geometry" />
        </mxCell>
        <mxCell id="DqxcN8GwO106yfGj2cxF-73" value="atualizar?" style="rhombus;whiteSpace=wrap;html=1;" parent="1" vertex="1">
          <mxGeometry x="620" y="110" width="80" height="80" as="geometry" />
        </mxCell>
        <mxCell id="I3Eb_-N1sQP1QvbI4rdD-2" value="não" style="edgeStyle=orthogonalEdgeStyle;rounded=0;orthogonalLoop=1;jettySize=auto;html=1;entryX=1;entryY=0.5;entryDx=0;entryDy=0;" edge="1" parent="1" source="DqxcN8GwO106yfGj2cxF-75" target="DqxcN8GwO106yfGj2cxF-73">
          <mxGeometry relative="1" as="geometry">
            <mxPoint x="730" y="270" as="targetPoint" />
            <Array as="points">
              <mxPoint x="730" y="255" />
              <mxPoint x="730" y="150" />
            </Array>
          </mxGeometry>
        </mxCell>
        <mxCell id="I3Eb_-N1sQP1QvbI4rdD-9" value="sim" style="edgeStyle=orthogonalEdgeStyle;rounded=0;orthogonalLoop=1;jettySize=auto;html=1;" edge="1" parent="1" source="DqxcN8GwO106yfGj2cxF-75" target="I3Eb_-N1sQP1QvbI4rdD-8">
          <mxGeometry relative="1" as="geometry">
            <Array as="points">
              <mxPoint x="660" y="310" />
              <mxPoint x="660" y="310" />
            </Array>
          </mxGeometry>
        </mxCell>
        <mxCell id="DqxcN8GwO106yfGj2cxF-75" value="dados válidos?" style="rhombus;whiteSpace=wrap;html=1;" parent="1" vertex="1">
          <mxGeometry x="620" y="215" width="80" height="80" as="geometry" />
        </mxCell>
        <mxCell id="I3Eb_-N1sQP1QvbI4rdD-5" value="não" style="edgeStyle=orthogonalEdgeStyle;rounded=0;orthogonalLoop=1;jettySize=auto;html=1;entryX=0.5;entryY=1;entryDx=0;entryDy=0;" edge="1" parent="1" source="I3Eb_-N1sQP1QvbI4rdD-3" target="DqxcN8GwO106yfGj2cxF-63">
          <mxGeometry relative="1" as="geometry" />
        </mxCell>
        <mxCell id="I3Eb_-N1sQP1QvbI4rdD-42" value="" style="edgeStyle=orthogonalEdgeStyle;rounded=0;orthogonalLoop=1;jettySize=auto;html=1;" edge="1" parent="1" source="I3Eb_-N1sQP1QvbI4rdD-3" target="I3Eb_-N1sQP1QvbI4rdD-6">
          <mxGeometry relative="1" as="geometry" />
        </mxCell>
        <mxCell id="I3Eb_-N1sQP1QvbI4rdD-43" value="" style="edgeStyle=orthogonalEdgeStyle;rounded=0;orthogonalLoop=1;jettySize=auto;html=1;" edge="1" parent="1" source="I3Eb_-N1sQP1QvbI4rdD-3" target="I3Eb_-N1sQP1QvbI4rdD-6">
          <mxGeometry relative="1" as="geometry" />
        </mxCell>
        <mxCell id="I3Eb_-N1sQP1QvbI4rdD-3" value="confirmação?" style="rhombus;whiteSpace=wrap;html=1;" vertex="1" parent="1">
          <mxGeometry x="500" y="210" width="80" height="80" as="geometry" />
        </mxCell>
        <mxCell id="I3Eb_-N1sQP1QvbI4rdD-7" style="edgeStyle=orthogonalEdgeStyle;rounded=0;orthogonalLoop=1;jettySize=auto;html=1;entryX=1;entryY=1;entryDx=0;entryDy=0;" edge="1" parent="1" source="I3Eb_-N1sQP1QvbI4rdD-6" target="DqxcN8GwO106yfGj2cxF-51">
          <mxGeometry relative="1" as="geometry">
            <Array as="points">
              <mxPoint x="370" y="335" />
              <mxPoint x="370" y="190" />
              <mxPoint x="125" y="190" />
            </Array>
          </mxGeometry>
        </mxCell>
        <mxCell id="I3Eb_-N1sQP1QvbI4rdD-6" value="apagar cliente&amp;nbsp;" style="rounded=0;whiteSpace=wrap;html=1;" vertex="1" parent="1">
          <mxGeometry x="490" y="310" width="100" height="50" as="geometry" />
        </mxCell>
        <mxCell id="I3Eb_-N1sQP1QvbI4rdD-10" style="edgeStyle=orthogonalEdgeStyle;rounded=0;orthogonalLoop=1;jettySize=auto;html=1;entryX=1;entryY=1;entryDx=0;entryDy=0;" edge="1" parent="1" source="I3Eb_-N1sQP1QvbI4rdD-8" target="DqxcN8GwO106yfGj2cxF-51">
          <mxGeometry relative="1" as="geometry">
            <Array as="points">
              <mxPoint x="360" y="370" />
              <mxPoint x="360" y="210" />
              <mxPoint x="125" y="210" />
            </Array>
          </mxGeometry>
        </mxCell>
        <mxCell id="I3Eb_-N1sQP1QvbI4rdD-12" value="" style="edgeStyle=orthogonalEdgeStyle;rounded=0;orthogonalLoop=1;jettySize=auto;html=1;" edge="1" parent="1" source="I3Eb_-N1sQP1QvbI4rdD-8" target="I3Eb_-N1sQP1QvbI4rdD-11">
          <mxGeometry relative="1" as="geometry" />
        </mxCell>
        <mxCell id="I3Eb_-N1sQP1QvbI4rdD-8" value="cadastro atualizado" style="rounded=0;whiteSpace=wrap;html=1;" vertex="1" parent="1">
          <mxGeometry x="605" y="335" width="110" height="50" as="geometry" />
        </mxCell>
        <mxCell id="I3Eb_-N1sQP1QvbI4rdD-11" value="fim" style="ellipse;whiteSpace=wrap;html=1;" vertex="1" parent="1">
          <mxGeometry x="606.25" y="430" width="107.5" height="57.5" as="geometry" />
        </mxCell>
      </root>
    </mxGraphModel>
  </diagram>
  <diagram id="lIQ1qETOgJaS3VpZxJ2W" name="Página-2">
    <mxGraphModel dx="1434" dy="782" grid="1" gridSize="10" guides="1" tooltips="1" connect="1" arrows="1" fold="1" page="1" pageScale="1" pageWidth="827" pageHeight="1169" math="0" shadow="0">
      <root>
        <mxCell id="0" />
        <mxCell id="1" parent="0" />
        <mxCell id="EA676hMaUVOyt8Dl_54U-35" value="" style="edgeStyle=orthogonalEdgeStyle;rounded=0;orthogonalLoop=1;jettySize=auto;html=1;" parent="1" source="EA676hMaUVOyt8Dl_54U-36" target="EA676hMaUVOyt8Dl_54U-39" edge="1">
          <mxGeometry relative="1" as="geometry" />
        </mxCell>
        <mxCell id="EA676hMaUVOyt8Dl_54U-36" value="início" style="ellipse;whiteSpace=wrap;html=1;" parent="1" vertex="1">
          <mxGeometry x="75" y="35" width="120" height="65" as="geometry" />
        </mxCell>
        <mxCell id="EA676hMaUVOyt8Dl_54U-37" value="não" style="edgeStyle=orthogonalEdgeStyle;rounded=0;orthogonalLoop=1;jettySize=auto;html=1;" parent="1" source="EA676hMaUVOyt8Dl_54U-39" target="EA676hMaUVOyt8Dl_54U-41" edge="1">
          <mxGeometry relative="1" as="geometry" />
        </mxCell>
        <mxCell id="EA676hMaUVOyt8Dl_54U-38" value="sim" style="edgeStyle=orthogonalEdgeStyle;rounded=0;orthogonalLoop=1;jettySize=auto;html=1;" parent="1" source="EA676hMaUVOyt8Dl_54U-39" target="EA676hMaUVOyt8Dl_54U-48" edge="1">
          <mxGeometry relative="1" as="geometry" />
        </mxCell>
        <mxCell id="EA676hMaUVOyt8Dl_54U-39" value="fornecedor cadastrado" style="rhombus;whiteSpace=wrap;html=1;" parent="1" vertex="1">
          <mxGeometry x="95" y="140" width="80" height="80" as="geometry" />
        </mxCell>
        <mxCell id="EA676hMaUVOyt8Dl_54U-40" value="" style="edgeStyle=orthogonalEdgeStyle;rounded=0;orthogonalLoop=1;jettySize=auto;html=1;" parent="1" source="EA676hMaUVOyt8Dl_54U-41" target="EA676hMaUVOyt8Dl_54U-46" edge="1">
          <mxGeometry relative="1" as="geometry" />
        </mxCell>
        <mxCell id="EA676hMaUVOyt8Dl_54U-41" value="cadastrar fornecedor" style="rounded=0;whiteSpace=wrap;html=1;" parent="1" vertex="1">
          <mxGeometry x="80" y="250" width="110" height="50" as="geometry" />
        </mxCell>
        <mxCell id="EA676hMaUVOyt8Dl_54U-42" style="edgeStyle=orthogonalEdgeStyle;rounded=0;orthogonalLoop=1;jettySize=auto;html=1;entryX=0;entryY=0.5;entryDx=0;entryDy=0;" parent="1" source="EA676hMaUVOyt8Dl_54U-43" target="EA676hMaUVOyt8Dl_54U-39" edge="1">
          <mxGeometry relative="1" as="geometry">
            <Array as="points">
              <mxPoint x="55" y="465" />
              <mxPoint x="55" y="180" />
            </Array>
          </mxGeometry>
        </mxCell>
        <mxCell id="EA676hMaUVOyt8Dl_54U-43" value="cadastro realizado" style="rounded=0;whiteSpace=wrap;html=1;" parent="1" vertex="1">
          <mxGeometry x="75" y="440" width="120" height="50" as="geometry" />
        </mxCell>
        <mxCell id="EA676hMaUVOyt8Dl_54U-44" value="sim" style="edgeStyle=orthogonalEdgeStyle;rounded=0;orthogonalLoop=1;jettySize=auto;html=1;" parent="1" source="EA676hMaUVOyt8Dl_54U-46" target="EA676hMaUVOyt8Dl_54U-43" edge="1">
          <mxGeometry relative="1" as="geometry" />
        </mxCell>
        <mxCell id="EA676hMaUVOyt8Dl_54U-45" value="não" style="edgeStyle=orthogonalEdgeStyle;rounded=0;orthogonalLoop=1;jettySize=auto;html=1;" parent="1" source="EA676hMaUVOyt8Dl_54U-46" target="EA676hMaUVOyt8Dl_54U-67" edge="1">
          <mxGeometry relative="1" as="geometry" />
        </mxCell>
        <mxCell id="EA676hMaUVOyt8Dl_54U-46" value="dados válidos?" style="rhombus;whiteSpace=wrap;html=1;" parent="1" vertex="1">
          <mxGeometry x="95" y="330" width="80" height="80" as="geometry" />
        </mxCell>
        <mxCell id="EA676hMaUVOyt8Dl_54U-47" value="" style="edgeStyle=orthogonalEdgeStyle;rounded=0;orthogonalLoop=1;jettySize=auto;html=1;" parent="1" source="EA676hMaUVOyt8Dl_54U-48" target="EA676hMaUVOyt8Dl_54U-51" edge="1">
          <mxGeometry relative="1" as="geometry" />
        </mxCell>
        <mxCell id="EA676hMaUVOyt8Dl_54U-48" value="buscar fornecedor&amp;nbsp;" style="rounded=0;whiteSpace=wrap;html=1;" parent="1" vertex="1">
          <mxGeometry x="210" y="155" width="112.5" height="50" as="geometry" />
        </mxCell>
        <mxCell id="EA676hMaUVOyt8Dl_54U-49" value="sim" style="edgeStyle=orthogonalEdgeStyle;rounded=0;orthogonalLoop=1;jettySize=auto;html=1;" parent="1" source="EA676hMaUVOyt8Dl_54U-51" target="EA676hMaUVOyt8Dl_54U-54" edge="1">
          <mxGeometry relative="1" as="geometry" />
        </mxCell>
        <mxCell id="EA676hMaUVOyt8Dl_54U-50" value="não" style="edgeStyle=orthogonalEdgeStyle;rounded=0;orthogonalLoop=1;jettySize=auto;html=1;entryX=0.5;entryY=0;entryDx=0;entryDy=0;" parent="1" source="EA676hMaUVOyt8Dl_54U-51" target="EA676hMaUVOyt8Dl_54U-48" edge="1">
          <mxGeometry relative="1" as="geometry">
            <Array as="points">
              <mxPoint x="400" y="135" />
              <mxPoint x="266" y="135" />
            </Array>
          </mxGeometry>
        </mxCell>
        <mxCell id="EA676hMaUVOyt8Dl_54U-51" value="fornecedor encontrado" style="rhombus;whiteSpace=wrap;html=1;" parent="1" vertex="1">
          <mxGeometry x="360" y="140" width="80" height="80" as="geometry" />
        </mxCell>
        <mxCell id="EA676hMaUVOyt8Dl_54U-52" value="não" style="edgeStyle=orthogonalEdgeStyle;rounded=0;orthogonalLoop=1;jettySize=auto;html=1;" parent="1" source="EA676hMaUVOyt8Dl_54U-54" target="EA676hMaUVOyt8Dl_54U-56" edge="1">
          <mxGeometry relative="1" as="geometry" />
        </mxCell>
        <mxCell id="EA676hMaUVOyt8Dl_54U-53" value="sim" style="edgeStyle=orthogonalEdgeStyle;rounded=0;orthogonalLoop=1;jettySize=auto;html=1;" parent="1" source="EA676hMaUVOyt8Dl_54U-54" target="EA676hMaUVOyt8Dl_54U-65" edge="1">
          <mxGeometry relative="1" as="geometry" />
        </mxCell>
        <mxCell id="EA676hMaUVOyt8Dl_54U-54" value="apagar?" style="rhombus;whiteSpace=wrap;html=1;" parent="1" vertex="1">
          <mxGeometry x="470" y="140" width="80" height="80" as="geometry" />
        </mxCell>
        <mxCell id="EA676hMaUVOyt8Dl_54U-55" value="sim" style="edgeStyle=orthogonalEdgeStyle;rounded=0;orthogonalLoop=1;jettySize=auto;html=1;" parent="1" source="EA676hMaUVOyt8Dl_54U-56" target="EA676hMaUVOyt8Dl_54U-58" edge="1">
          <mxGeometry relative="1" as="geometry" />
        </mxCell>
        <mxCell id="EA676hMaUVOyt8Dl_54U-56" value="atualizar?" style="rhombus;whiteSpace=wrap;html=1;" parent="1" vertex="1">
          <mxGeometry x="580" y="140" width="80" height="80" as="geometry" />
        </mxCell>
        <mxCell id="EA676hMaUVOyt8Dl_54U-57" value="sim" style="edgeStyle=orthogonalEdgeStyle;rounded=0;orthogonalLoop=1;jettySize=auto;html=1;" parent="1" source="EA676hMaUVOyt8Dl_54U-58" target="EA676hMaUVOyt8Dl_54U-60" edge="1">
          <mxGeometry relative="1" as="geometry" />
        </mxCell>
        <mxCell id="EA676hMaUVOyt8Dl_54U-58" value="dados válidos?" style="rhombus;whiteSpace=wrap;html=1;" parent="1" vertex="1">
          <mxGeometry x="580" y="250" width="80" height="80" as="geometry" />
        </mxCell>
        <mxCell id="EA676hMaUVOyt8Dl_54U-59" value="" style="edgeStyle=orthogonalEdgeStyle;rounded=0;orthogonalLoop=1;jettySize=auto;html=1;" parent="1" source="EA676hMaUVOyt8Dl_54U-60" edge="1">
          <mxGeometry relative="1" as="geometry">
            <mxPoint x="620" y="500" as="targetPoint" />
          </mxGeometry>
        </mxCell>
        <mxCell id="EA676hMaUVOyt8Dl_54U-60" value="cadastro atualizado" style="rounded=0;whiteSpace=wrap;html=1;" parent="1" vertex="1">
          <mxGeometry x="565" y="420" width="110" height="50" as="geometry" />
        </mxCell>
        <mxCell id="EA676hMaUVOyt8Dl_54U-61" style="edgeStyle=orthogonalEdgeStyle;rounded=0;orthogonalLoop=1;jettySize=auto;html=1;entryX=0.613;entryY=0.913;entryDx=0;entryDy=0;entryPerimeter=0;exitX=0;exitY=0.5;exitDx=0;exitDy=0;" parent="1" source="EA676hMaUVOyt8Dl_54U-62" target="EA676hMaUVOyt8Dl_54U-39" edge="1">
          <mxGeometry relative="1" as="geometry">
            <mxPoint x="160" y="220" as="targetPoint" />
            <mxPoint x="460" y="430" as="sourcePoint" />
            <Array as="points">
              <mxPoint x="460" y="400" />
              <mxPoint x="430" y="400" />
              <mxPoint x="430" y="290" />
              <mxPoint x="220" y="290" />
              <mxPoint x="220" y="230" />
              <mxPoint x="144" y="230" />
            </Array>
          </mxGeometry>
        </mxCell>
        <mxCell id="EA676hMaUVOyt8Dl_54U-62" value="apagar fornecedor" style="rounded=0;whiteSpace=wrap;html=1;" parent="1" vertex="1">
          <mxGeometry x="460" y="370" width="100" height="50" as="geometry" />
        </mxCell>
        <mxCell id="EA676hMaUVOyt8Dl_54U-63" value="" style="edgeStyle=orthogonalEdgeStyle;rounded=0;orthogonalLoop=1;jettySize=auto;html=1;" parent="1" source="EA676hMaUVOyt8Dl_54U-65" target="EA676hMaUVOyt8Dl_54U-62" edge="1">
          <mxGeometry relative="1" as="geometry" />
        </mxCell>
        <mxCell id="EA676hMaUVOyt8Dl_54U-64" value="não" style="edgeStyle=orthogonalEdgeStyle;rounded=0;orthogonalLoop=1;jettySize=auto;html=1;entryX=0.5;entryY=1;entryDx=0;entryDy=0;" parent="1" source="EA676hMaUVOyt8Dl_54U-65" target="EA676hMaUVOyt8Dl_54U-51" edge="1">
          <mxGeometry relative="1" as="geometry" />
        </mxCell>
        <mxCell id="EA676hMaUVOyt8Dl_54U-65" value="confirmação?" style="rhombus;whiteSpace=wrap;html=1;" parent="1" vertex="1">
          <mxGeometry x="470" y="240" width="80" height="80" as="geometry" />
        </mxCell>
        <mxCell id="EA676hMaUVOyt8Dl_54U-66" value="fim" style="ellipse;whiteSpace=wrap;html=1;" parent="1" vertex="1">
          <mxGeometry x="567.5" y="498" width="105" height="60" as="geometry" />
        </mxCell>
        <mxCell id="EA676hMaUVOyt8Dl_54U-67" value="mostrar erro&amp;nbsp;" style="rounded=0;whiteSpace=wrap;html=1;" parent="1" vertex="1">
          <mxGeometry x="212.5" y="345" width="110" height="50" as="geometry" />
        </mxCell>
        <mxCell id="EA676hMaUVOyt8Dl_54U-68" style="edgeStyle=orthogonalEdgeStyle;rounded=0;orthogonalLoop=1;jettySize=auto;html=1;entryX=0.838;entryY=0.725;entryDx=0;entryDy=0;entryPerimeter=0;" parent="1" source="EA676hMaUVOyt8Dl_54U-60" target="EA676hMaUVOyt8Dl_54U-39" edge="1">
          <mxGeometry relative="1" as="geometry">
            <Array as="points">
              <mxPoint x="360" y="445" />
              <mxPoint x="360" y="220" />
              <mxPoint x="162" y="220" />
            </Array>
          </mxGeometry>
        </mxCell>
      </root>
    </mxGraphModel>
  </diagram>
  <diagram id="icA_B1dYd6gmF1E8ug1H" name="Página-3">
    <mxGraphModel dx="1434" dy="782" grid="1" gridSize="10" guides="1" tooltips="1" connect="1" arrows="1" fold="1" page="1" pageScale="1" pageWidth="827" pageHeight="1169" math="0" shadow="0">
      <root>
        <mxCell id="0" />
        <mxCell id="1" parent="0" />
        <mxCell id="37k68M66aMIn7sRB3Acw-1" value="" style="edgeStyle=orthogonalEdgeStyle;rounded=0;orthogonalLoop=1;jettySize=auto;html=1;" edge="1" parent="1" source="37k68M66aMIn7sRB3Acw-2" target="37k68M66aMIn7sRB3Acw-5">
          <mxGeometry relative="1" as="geometry" />
        </mxCell>
        <mxCell id="37k68M66aMIn7sRB3Acw-2" value="início" style="ellipse;whiteSpace=wrap;html=1;" vertex="1" parent="1">
          <mxGeometry x="75" y="35" width="120" height="65" as="geometry" />
        </mxCell>
        <mxCell id="37k68M66aMIn7sRB3Acw-3" value="não" style="edgeStyle=orthogonalEdgeStyle;rounded=0;orthogonalLoop=1;jettySize=auto;html=1;" edge="1" parent="1" source="37k68M66aMIn7sRB3Acw-5" target="37k68M66aMIn7sRB3Acw-7">
          <mxGeometry relative="1" as="geometry" />
        </mxCell>
        <mxCell id="37k68M66aMIn7sRB3Acw-4" value="sim" style="edgeStyle=orthogonalEdgeStyle;rounded=0;orthogonalLoop=1;jettySize=auto;html=1;" edge="1" parent="1" source="37k68M66aMIn7sRB3Acw-5" target="37k68M66aMIn7sRB3Acw-14">
          <mxGeometry relative="1" as="geometry" />
        </mxCell>
        <mxCell id="37k68M66aMIn7sRB3Acw-5" value="estoque cadastrado&amp;nbsp;" style="rhombus;whiteSpace=wrap;html=1;" vertex="1" parent="1">
          <mxGeometry x="95" y="140" width="80" height="80" as="geometry" />
        </mxCell>
        <mxCell id="37k68M66aMIn7sRB3Acw-6" value="" style="edgeStyle=orthogonalEdgeStyle;rounded=0;orthogonalLoop=1;jettySize=auto;html=1;" edge="1" parent="1" source="37k68M66aMIn7sRB3Acw-7" target="37k68M66aMIn7sRB3Acw-12">
          <mxGeometry relative="1" as="geometry" />
        </mxCell>
        <mxCell id="37k68M66aMIn7sRB3Acw-7" value="cadastrar estoque&amp;nbsp;" style="rounded=0;whiteSpace=wrap;html=1;" vertex="1" parent="1">
          <mxGeometry x="80" y="250" width="110" height="50" as="geometry" />
        </mxCell>
        <mxCell id="37k68M66aMIn7sRB3Acw-8" style="edgeStyle=orthogonalEdgeStyle;rounded=0;orthogonalLoop=1;jettySize=auto;html=1;entryX=0;entryY=0.5;entryDx=0;entryDy=0;" edge="1" parent="1" source="37k68M66aMIn7sRB3Acw-9" target="37k68M66aMIn7sRB3Acw-5">
          <mxGeometry relative="1" as="geometry">
            <Array as="points">
              <mxPoint x="55" y="465" />
              <mxPoint x="55" y="180" />
            </Array>
          </mxGeometry>
        </mxCell>
        <mxCell id="37k68M66aMIn7sRB3Acw-9" value="cadastro de estoque realizado" style="rounded=0;whiteSpace=wrap;html=1;" vertex="1" parent="1">
          <mxGeometry x="75" y="440" width="120" height="50" as="geometry" />
        </mxCell>
        <mxCell id="37k68M66aMIn7sRB3Acw-10" value="sim" style="edgeStyle=orthogonalEdgeStyle;rounded=0;orthogonalLoop=1;jettySize=auto;html=1;" edge="1" parent="1" source="37k68M66aMIn7sRB3Acw-12" target="37k68M66aMIn7sRB3Acw-9">
          <mxGeometry relative="1" as="geometry" />
        </mxCell>
        <mxCell id="37k68M66aMIn7sRB3Acw-11" value="não" style="edgeStyle=orthogonalEdgeStyle;rounded=0;orthogonalLoop=1;jettySize=auto;html=1;" edge="1" parent="1" source="37k68M66aMIn7sRB3Acw-12" target="37k68M66aMIn7sRB3Acw-33">
          <mxGeometry relative="1" as="geometry" />
        </mxCell>
        <mxCell id="37k68M66aMIn7sRB3Acw-12" value="dados válidos?" style="rhombus;whiteSpace=wrap;html=1;" vertex="1" parent="1">
          <mxGeometry x="95" y="330" width="80" height="80" as="geometry" />
        </mxCell>
        <mxCell id="37k68M66aMIn7sRB3Acw-13" value="" style="edgeStyle=orthogonalEdgeStyle;rounded=0;orthogonalLoop=1;jettySize=auto;html=1;" edge="1" parent="1" source="37k68M66aMIn7sRB3Acw-14" target="37k68M66aMIn7sRB3Acw-17">
          <mxGeometry relative="1" as="geometry" />
        </mxCell>
        <mxCell id="37k68M66aMIn7sRB3Acw-14" value="&amp;nbsp;buscar no estoque" style="rounded=0;whiteSpace=wrap;html=1;" vertex="1" parent="1">
          <mxGeometry x="210" y="155" width="112.5" height="50" as="geometry" />
        </mxCell>
        <mxCell id="37k68M66aMIn7sRB3Acw-15" value="sim" style="edgeStyle=orthogonalEdgeStyle;rounded=0;orthogonalLoop=1;jettySize=auto;html=1;" edge="1" parent="1" source="37k68M66aMIn7sRB3Acw-17" target="37k68M66aMIn7sRB3Acw-20">
          <mxGeometry relative="1" as="geometry" />
        </mxCell>
        <mxCell id="37k68M66aMIn7sRB3Acw-16" value="não" style="edgeStyle=orthogonalEdgeStyle;rounded=0;orthogonalLoop=1;jettySize=auto;html=1;entryX=0.5;entryY=0;entryDx=0;entryDy=0;" edge="1" parent="1" source="37k68M66aMIn7sRB3Acw-17" target="37k68M66aMIn7sRB3Acw-14">
          <mxGeometry relative="1" as="geometry">
            <Array as="points">
              <mxPoint x="400" y="135" />
              <mxPoint x="266" y="135" />
            </Array>
          </mxGeometry>
        </mxCell>
        <mxCell id="37k68M66aMIn7sRB3Acw-17" value="estoque encontardo" style="rhombus;whiteSpace=wrap;html=1;" vertex="1" parent="1">
          <mxGeometry x="360" y="140" width="80" height="80" as="geometry" />
        </mxCell>
        <mxCell id="37k68M66aMIn7sRB3Acw-18" value="não" style="edgeStyle=orthogonalEdgeStyle;rounded=0;orthogonalLoop=1;jettySize=auto;html=1;" edge="1" parent="1" source="37k68M66aMIn7sRB3Acw-20" target="37k68M66aMIn7sRB3Acw-22">
          <mxGeometry relative="1" as="geometry" />
        </mxCell>
        <mxCell id="37k68M66aMIn7sRB3Acw-19" value="sim" style="edgeStyle=orthogonalEdgeStyle;rounded=0;orthogonalLoop=1;jettySize=auto;html=1;" edge="1" parent="1" source="37k68M66aMIn7sRB3Acw-20" target="37k68M66aMIn7sRB3Acw-31">
          <mxGeometry relative="1" as="geometry" />
        </mxCell>
        <mxCell id="37k68M66aMIn7sRB3Acw-20" value="apagar?" style="rhombus;whiteSpace=wrap;html=1;" vertex="1" parent="1">
          <mxGeometry x="470" y="140" width="80" height="80" as="geometry" />
        </mxCell>
        <mxCell id="37k68M66aMIn7sRB3Acw-21" value="sim" style="edgeStyle=orthogonalEdgeStyle;rounded=0;orthogonalLoop=1;jettySize=auto;html=1;" edge="1" parent="1" source="37k68M66aMIn7sRB3Acw-22" target="37k68M66aMIn7sRB3Acw-24">
          <mxGeometry relative="1" as="geometry" />
        </mxCell>
        <mxCell id="37k68M66aMIn7sRB3Acw-22" value="atualizar?" style="rhombus;whiteSpace=wrap;html=1;" vertex="1" parent="1">
          <mxGeometry x="580" y="140" width="80" height="80" as="geometry" />
        </mxCell>
        <mxCell id="37k68M66aMIn7sRB3Acw-23" value="sim" style="edgeStyle=orthogonalEdgeStyle;rounded=0;orthogonalLoop=1;jettySize=auto;html=1;" edge="1" parent="1" source="37k68M66aMIn7sRB3Acw-24" target="37k68M66aMIn7sRB3Acw-26">
          <mxGeometry relative="1" as="geometry" />
        </mxCell>
        <mxCell id="37k68M66aMIn7sRB3Acw-24" value="dados válidos?" style="rhombus;whiteSpace=wrap;html=1;" vertex="1" parent="1">
          <mxGeometry x="580" y="250" width="80" height="80" as="geometry" />
        </mxCell>
        <mxCell id="37k68M66aMIn7sRB3Acw-25" value="" style="edgeStyle=orthogonalEdgeStyle;rounded=0;orthogonalLoop=1;jettySize=auto;html=1;" edge="1" parent="1" source="37k68M66aMIn7sRB3Acw-26">
          <mxGeometry relative="1" as="geometry">
            <mxPoint x="620" y="500" as="targetPoint" />
          </mxGeometry>
        </mxCell>
        <mxCell id="37k68M66aMIn7sRB3Acw-26" value="cadastro de estoque atualizado" style="rounded=0;whiteSpace=wrap;html=1;" vertex="1" parent="1">
          <mxGeometry x="565" y="420" width="110" height="50" as="geometry" />
        </mxCell>
        <mxCell id="37k68M66aMIn7sRB3Acw-27" style="edgeStyle=orthogonalEdgeStyle;rounded=0;orthogonalLoop=1;jettySize=auto;html=1;entryX=0.613;entryY=0.913;entryDx=0;entryDy=0;entryPerimeter=0;exitX=0;exitY=0.5;exitDx=0;exitDy=0;" edge="1" parent="1" source="37k68M66aMIn7sRB3Acw-28" target="37k68M66aMIn7sRB3Acw-5">
          <mxGeometry relative="1" as="geometry">
            <mxPoint x="160" y="220" as="targetPoint" />
            <mxPoint x="460" y="430" as="sourcePoint" />
            <Array as="points">
              <mxPoint x="460" y="400" />
              <mxPoint x="430" y="400" />
              <mxPoint x="430" y="290" />
              <mxPoint x="220" y="290" />
              <mxPoint x="220" y="230" />
              <mxPoint x="144" y="230" />
            </Array>
          </mxGeometry>
        </mxCell>
        <mxCell id="37k68M66aMIn7sRB3Acw-28" value="apagar estoque" style="rounded=0;whiteSpace=wrap;html=1;" vertex="1" parent="1">
          <mxGeometry x="460" y="370" width="100" height="50" as="geometry" />
        </mxCell>
        <mxCell id="37k68M66aMIn7sRB3Acw-29" value="" style="edgeStyle=orthogonalEdgeStyle;rounded=0;orthogonalLoop=1;jettySize=auto;html=1;" edge="1" parent="1" source="37k68M66aMIn7sRB3Acw-31" target="37k68M66aMIn7sRB3Acw-28">
          <mxGeometry relative="1" as="geometry" />
        </mxCell>
        <mxCell id="37k68M66aMIn7sRB3Acw-30" value="não" style="edgeStyle=orthogonalEdgeStyle;rounded=0;orthogonalLoop=1;jettySize=auto;html=1;entryX=0.5;entryY=1;entryDx=0;entryDy=0;" edge="1" parent="1" source="37k68M66aMIn7sRB3Acw-31" target="37k68M66aMIn7sRB3Acw-17">
          <mxGeometry relative="1" as="geometry" />
        </mxCell>
        <mxCell id="37k68M66aMIn7sRB3Acw-31" value="confirmação?" style="rhombus;whiteSpace=wrap;html=1;" vertex="1" parent="1">
          <mxGeometry x="470" y="240" width="80" height="80" as="geometry" />
        </mxCell>
        <mxCell id="37k68M66aMIn7sRB3Acw-32" value="fim" style="ellipse;whiteSpace=wrap;html=1;" vertex="1" parent="1">
          <mxGeometry x="567.5" y="498" width="105" height="60" as="geometry" />
        </mxCell>
        <mxCell id="37k68M66aMIn7sRB3Acw-33" value="mostrar erro&amp;nbsp;" style="rounded=0;whiteSpace=wrap;html=1;" vertex="1" parent="1">
          <mxGeometry x="212.5" y="345" width="110" height="50" as="geometry" />
        </mxCell>
        <mxCell id="37k68M66aMIn7sRB3Acw-34" style="edgeStyle=orthogonalEdgeStyle;rounded=0;orthogonalLoop=1;jettySize=auto;html=1;entryX=0.838;entryY=0.725;entryDx=0;entryDy=0;entryPerimeter=0;" edge="1" parent="1" source="37k68M66aMIn7sRB3Acw-26" target="37k68M66aMIn7sRB3Acw-5">
          <mxGeometry relative="1" as="geometry">
            <Array as="points">
              <mxPoint x="360" y="445" />
              <mxPoint x="360" y="220" />
              <mxPoint x="162" y="220" />
            </Array>
          </mxGeometry>
        </mxCell>
      </root>
    </mxGraphModel>
  </diagram>
  <diagram id="LFSaVql5OYWhuBEmUT0U" name="Página-4">
    <mxGraphModel dx="1434" dy="782" grid="1" gridSize="10" guides="1" tooltips="1" connect="1" arrows="1" fold="1" page="1" pageScale="1" pageWidth="827" pageHeight="1169" math="0" shadow="0">
      <root>
        <mxCell id="0" />
        <mxCell id="1" parent="0" />
        <mxCell id="I8tuX_kgQduZuLbsErg5-8" value="" style="shape=ext;double=1;rounded=1;whiteSpace=wrap;html=1;fillColor=#cce5ff;strokeColor=#36393d;shadow=0;glass=1;arcSize=13;" parent="1" vertex="1">
          <mxGeometry x="197" y="90" width="450" height="800" as="geometry" />
        </mxCell>
        <mxCell id="I8tuX_kgQduZuLbsErg5-11" value="" style="shape=ext;double=1;rounded=1;whiteSpace=wrap;html=1;glass=0;shadow=0;align=right;arcSize=13;" parent="1" vertex="1">
          <mxGeometry x="224" y="220" width="206" height="30" as="geometry" />
        </mxCell>
        <mxCell id="I8tuX_kgQduZuLbsErg5-87" value="" style="shape=ext;double=1;rounded=1;whiteSpace=wrap;html=1;" parent="1" vertex="1">
          <mxGeometry x="224" y="290" width="206" height="30" as="geometry" />
        </mxCell>
        <mxCell id="2a1SnmIciHLKmUoZLJjn-2" value="" style="shape=ext;double=1;rounded=1;whiteSpace=wrap;html=1;" vertex="1" parent="1">
          <mxGeometry x="224" y="360" width="396" height="30" as="geometry" />
        </mxCell>
        <mxCell id="2a1SnmIciHLKmUoZLJjn-3" value="" style="shape=ext;double=1;rounded=1;whiteSpace=wrap;html=1;" vertex="1" parent="1">
          <mxGeometry x="224" y="430" width="396" height="30" as="geometry" />
        </mxCell>
        <mxCell id="mc5MefgIwjIjDEtzDNup-1" value="Nome:" style="text;html=1;align=center;verticalAlign=middle;whiteSpace=wrap;rounded=0;" vertex="1" parent="1">
          <mxGeometry x="220" y="200" width="60" height="20" as="geometry" />
        </mxCell>
        <mxCell id="mc5MefgIwjIjDEtzDNup-2" value="Sobrenome:" style="text;html=1;align=center;verticalAlign=middle;whiteSpace=wrap;rounded=0;" vertex="1" parent="1">
          <mxGeometry x="220" y="260" width="80" height="30" as="geometry" />
        </mxCell>
        <mxCell id="mc5MefgIwjIjDEtzDNup-3" value="&amp;nbsp; CPF:" style="text;html=1;align=center;verticalAlign=middle;whiteSpace=wrap;rounded=0;" vertex="1" parent="1">
          <mxGeometry x="210" y="330" width="60" height="30" as="geometry" />
        </mxCell>
        <mxCell id="mc5MefgIwjIjDEtzDNup-4" value="Telefone:" style="text;html=1;align=center;verticalAlign=middle;whiteSpace=wrap;rounded=0;" vertex="1" parent="1">
          <mxGeometry x="224" y="400" width="60" height="30" as="geometry" />
        </mxCell>
        <mxCell id="mc5MefgIwjIjDEtzDNup-5" value="CADASTRAR-SE" style="shape=ext;double=1;rounded=1;whiteSpace=wrap;html=1;shadow=0;fillColor=#66B2FF;strokeColor=#330000;" vertex="1" parent="1">
          <mxGeometry x="349" y="740" width="152" height="30" as="geometry" />
        </mxCell>
        <mxCell id="mc5MefgIwjIjDEtzDNup-7" value="Cadastrar cliente" style="text;strokeColor=none;fillColor=none;html=1;fontSize=24;fontStyle=1;verticalAlign=middle;align=center;" vertex="1" parent="1">
          <mxGeometry x="375" y="130" width="100" height="40" as="geometry" />
        </mxCell>
        <mxCell id="mc5MefgIwjIjDEtzDNup-9" value="" style="shape=link;html=1;rounded=0;" edge="1" parent="1">
          <mxGeometry width="100" relative="1" as="geometry">
            <mxPoint x="285" y="170" as="sourcePoint" />
            <mxPoint x="565" y="170" as="targetPoint" />
          </mxGeometry>
        </mxCell>
        <mxCell id="mc5MefgIwjIjDEtzDNup-10" value="&lt;font color=&quot;#cc0000&quot; style=&quot;font-size: 28px;&quot;&gt;*&lt;/font&gt;" style="text;html=1;align=center;verticalAlign=middle;whiteSpace=wrap;rounded=0;" vertex="1" parent="1">
          <mxGeometry x="414" y="215" width="60" height="30" as="geometry" />
        </mxCell>
        <mxCell id="mc5MefgIwjIjDEtzDNup-11" value="&lt;span style=&quot;color: rgb(204, 0, 0); font-size: 28px;&quot;&gt;*&lt;/span&gt;" style="text;html=1;align=center;verticalAlign=middle;whiteSpace=wrap;rounded=0;" vertex="1" parent="1">
          <mxGeometry x="600" y="430" width="60" height="30" as="geometry" />
        </mxCell>
        <mxCell id="mc5MefgIwjIjDEtzDNup-12" value="&lt;span style=&quot;color: rgb(204, 0, 0); font-size: 28px;&quot;&gt;*&lt;/span&gt;" style="text;html=1;align=center;verticalAlign=middle;whiteSpace=wrap;rounded=0;" vertex="1" parent="1">
          <mxGeometry x="600" y="360" width="60" height="30" as="geometry" />
        </mxCell>
        <mxCell id="mc5MefgIwjIjDEtzDNup-13" value="&lt;span style=&quot;color: rgb(204, 0, 0); font-size: 28px;&quot;&gt;*&lt;/span&gt;" style="text;html=1;align=center;verticalAlign=middle;whiteSpace=wrap;rounded=0;" vertex="1" parent="1">
          <mxGeometry x="414" y="290" width="60" height="30" as="geometry" />
        </mxCell>
        <mxCell id="mc5MefgIwjIjDEtzDNup-14" value="Possuo cadastro&amp;gt;&amp;gt;" style="text;html=1;align=center;verticalAlign=middle;whiteSpace=wrap;rounded=0;" vertex="1" parent="1">
          <mxGeometry x="349" y="780" width="120" height="30" as="geometry" />
        </mxCell>
        <mxCell id="mc5MefgIwjIjDEtzDNup-18" value="" style="endArrow=none;html=1;rounded=0;" edge="1" parent="1">
          <mxGeometry width="50" height="50" relative="1" as="geometry">
            <mxPoint x="339.72999999999996" y="810" as="sourcePoint" />
            <mxPoint x="504.28" y="810" as="targetPoint" />
          </mxGeometry>
        </mxCell>
        <mxCell id="mrSXDmg-fnLcTKGj0scg-1" value="" style="shape=actor;whiteSpace=wrap;html=1;" vertex="1" parent="1">
          <mxGeometry x="469" y="785" width="20" height="20" as="geometry" />
        </mxCell>
        <mxCell id="ivj40EYaTSKpbwWGstln-1" value="" style="verticalLabelPosition=bottom;verticalAlign=top;html=1;shape=mxgraph.basic.x;fillColor=#CC0000;" vertex="1" parent="1">
          <mxGeometry x="284" y="610" width="39.5" height="40" as="geometry" />
        </mxCell>
        <mxCell id="ZlxYYfDy7bpVFxWAO8K8-1" value="" style="verticalLabelPosition=bottom;verticalAlign=top;html=1;shape=mxgraph.basic.tick;fillColor=#006633;" vertex="1" parent="1">
          <mxGeometry x="510" y="610" width="40" height="40" as="geometry" />
        </mxCell>
        <mxCell id="TG-rx5n8qkeB_Ika69Mv-1" value="APAGAR DADOS" style="text;html=1;align=center;verticalAlign=middle;whiteSpace=wrap;rounded=0;" vertex="1" parent="1">
          <mxGeometry x="253.75" y="660" width="100" height="30" as="geometry" />
        </mxCell>
        <mxCell id="TG-rx5n8qkeB_Ika69Mv-2" value="SALVAR DADOS" style="text;html=1;align=center;verticalAlign=middle;whiteSpace=wrap;rounded=0;" vertex="1" parent="1">
          <mxGeometry x="480" y="660" width="100" height="30" as="geometry" />
        </mxCell>
      </root>
    </mxGraphModel>
  </diagram>
  <diagram id="WNavyT_bF0-trUH3U7oi" name="Página-5">
    <mxGraphModel dx="2230" dy="782" grid="1" gridSize="10" guides="1" tooltips="1" connect="1" arrows="1" fold="1" page="1" pageScale="1" pageWidth="827" pageHeight="1169" math="0" shadow="0">
      <root>
        <mxCell id="0" />
        <mxCell id="1" parent="0" />
        <mxCell id="BwXhu-z4cHFkUHN0LULR-1" value="" style="shape=ext;double=1;rounded=1;whiteSpace=wrap;html=1;fillColor=#dae8fc;strokeColor=#6c8ebf;shadow=0;glass=1;arcSize=13;" vertex="1" parent="1">
          <mxGeometry x="-271" y="135" width="450" height="800" as="geometry" />
        </mxCell>
        <mxCell id="BwXhu-z4cHFkUHN0LULR-10" value="CADASTRAR-SE" style="shape=ext;double=1;rounded=1;whiteSpace=wrap;html=1;shadow=0;fillColor=#66B2FF;strokeColor=#330000;" vertex="1" parent="1">
          <mxGeometry x="-116" y="850" width="152" height="30" as="geometry" />
        </mxCell>
        <mxCell id="BwXhu-z4cHFkUHN0LULR-12" value="" style="shape=link;html=1;rounded=0;" edge="1" parent="1">
          <mxGeometry width="100" relative="1" as="geometry">
            <mxPoint x="-180" y="180" as="sourcePoint" />
            <mxPoint x="100" y="180" as="targetPoint" />
          </mxGeometry>
        </mxCell>
        <mxCell id="BwXhu-z4cHFkUHN0LULR-18" value="" style="endArrow=none;html=1;rounded=0;" edge="1" parent="1">
          <mxGeometry width="50" height="50" relative="1" as="geometry">
            <mxPoint x="-120.55000000000001" y="890" as="sourcePoint" />
            <mxPoint x="44" y="890" as="targetPoint" />
          </mxGeometry>
        </mxCell>
        <mxCell id="iG2b4Kx85xr08aRSxHFJ-3" value="Cadastrar fornecedor" style="text;strokeColor=none;fillColor=none;html=1;fontSize=24;fontStyle=1;verticalAlign=middle;align=center;" vertex="1" parent="1">
          <mxGeometry x="-96" y="140" width="100" height="40" as="geometry" />
        </mxCell>
        <mxCell id="iG2b4Kx85xr08aRSxHFJ-4" value="" style="shape=ext;double=1;rounded=1;whiteSpace=wrap;html=1;" vertex="1" parent="1">
          <mxGeometry x="-235" y="230" width="70" height="30" as="geometry" />
        </mxCell>
        <mxCell id="iG2b4Kx85xr08aRSxHFJ-5" value="" style="shape=ext;double=1;rounded=1;whiteSpace=wrap;html=1;" vertex="1" parent="1">
          <mxGeometry x="-141" y="230" width="100" height="30" as="geometry" />
        </mxCell>
        <mxCell id="iG2b4Kx85xr08aRSxHFJ-6" value="" style="shape=ext;double=1;rounded=1;whiteSpace=wrap;html=1;" vertex="1" parent="1">
          <mxGeometry x="-15" y="230" width="150" height="30" as="geometry" />
        </mxCell>
        <mxCell id="iG2b4Kx85xr08aRSxHFJ-7" value="Código:" style="text;html=1;align=center;verticalAlign=middle;whiteSpace=wrap;rounded=0;" vertex="1" parent="1">
          <mxGeometry x="-245" y="200" width="60" height="30" as="geometry" />
        </mxCell>
        <mxCell id="iG2b4Kx85xr08aRSxHFJ-8" value="CPF/CNPJ:" style="text;html=1;align=center;verticalAlign=middle;whiteSpace=wrap;rounded=0;" vertex="1" parent="1">
          <mxGeometry x="-16" y="200" width="60" height="30" as="geometry" />
        </mxCell>
        <mxCell id="iG2b4Kx85xr08aRSxHFJ-9" value="Razão Social:" style="text;html=1;align=center;verticalAlign=middle;whiteSpace=wrap;rounded=0;" vertex="1" parent="1">
          <mxGeometry x="-141" y="200" width="90" height="30" as="geometry" />
        </mxCell>
        <mxCell id="iG2b4Kx85xr08aRSxHFJ-10" value="" style="shape=ext;double=1;rounded=1;whiteSpace=wrap;html=1;" vertex="1" parent="1">
          <mxGeometry x="-235" y="310" width="110" height="30" as="geometry" />
        </mxCell>
        <mxCell id="Py8-zLNTl4ygqs_AsnGb-1" value="" style="shape=ext;double=1;rounded=1;whiteSpace=wrap;html=1;" vertex="1" parent="1">
          <mxGeometry x="-101" y="310" width="110" height="30" as="geometry" />
        </mxCell>
        <mxCell id="Py8-zLNTl4ygqs_AsnGb-3" value="" style="shape=ext;double=1;rounded=1;whiteSpace=wrap;html=1;" vertex="1" parent="1">
          <mxGeometry x="36" y="310" width="110" height="30" as="geometry" />
        </mxCell>
        <mxCell id="Py8-zLNTl4ygqs_AsnGb-5" value="Contato 1:" style="text;html=1;align=center;verticalAlign=middle;whiteSpace=wrap;rounded=0;" vertex="1" parent="1">
          <mxGeometry x="-235" y="280" width="60" height="30" as="geometry" />
        </mxCell>
        <mxCell id="Py8-zLNTl4ygqs_AsnGb-7" value="Contato 2:" style="text;html=1;align=center;verticalAlign=middle;whiteSpace=wrap;rounded=0;" vertex="1" parent="1">
          <mxGeometry x="-101" y="280" width="60" height="30" as="geometry" />
        </mxCell>
        <mxCell id="Py8-zLNTl4ygqs_AsnGb-9" value="Contato 3:" style="text;html=1;align=center;verticalAlign=middle;whiteSpace=wrap;rounded=0;" vertex="1" parent="1">
          <mxGeometry x="36" y="280" width="60" height="30" as="geometry" />
        </mxCell>
        <mxCell id="Py8-zLNTl4ygqs_AsnGb-11" value="" style="shape=ext;double=1;rounded=1;whiteSpace=wrap;html=1;" vertex="1" parent="1">
          <mxGeometry x="-235" y="380" width="110" height="30" as="geometry" />
        </mxCell>
        <mxCell id="Py8-zLNTl4ygqs_AsnGb-13" value="" style="shape=ext;double=1;rounded=1;whiteSpace=wrap;html=1;" vertex="1" parent="1">
          <mxGeometry x="-101" y="380" width="110" height="30" as="geometry" />
        </mxCell>
        <mxCell id="Py8-zLNTl4ygqs_AsnGb-15" value="" style="shape=ext;double=1;rounded=1;whiteSpace=wrap;html=1;" vertex="1" parent="1">
          <mxGeometry x="36" y="380" width="110" height="30" as="geometry" />
        </mxCell>
        <mxCell id="Py8-zLNTl4ygqs_AsnGb-17" value="Fone 1:" style="text;html=1;align=center;verticalAlign=middle;whiteSpace=wrap;rounded=0;" vertex="1" parent="1">
          <mxGeometry x="-235" y="350" width="60" height="30" as="geometry" />
        </mxCell>
        <mxCell id="Py8-zLNTl4ygqs_AsnGb-18" value="Fone 2:" style="text;html=1;align=center;verticalAlign=middle;whiteSpace=wrap;rounded=0;" vertex="1" parent="1">
          <mxGeometry x="-106" y="350" width="60" height="30" as="geometry" />
        </mxCell>
        <mxCell id="Py8-zLNTl4ygqs_AsnGb-19" value="Fone 3:" style="text;html=1;align=center;verticalAlign=middle;whiteSpace=wrap;rounded=0;" vertex="1" parent="1">
          <mxGeometry x="36" y="350" width="60" height="30" as="geometry" />
        </mxCell>
        <mxCell id="Py8-zLNTl4ygqs_AsnGb-20" value="" style="shape=ext;double=1;rounded=1;whiteSpace=wrap;html=1;" vertex="1" parent="1">
          <mxGeometry x="-234" y="450" width="380" height="30" as="geometry" />
        </mxCell>
        <mxCell id="Py8-zLNTl4ygqs_AsnGb-21" value="Email:" style="text;html=1;align=center;verticalAlign=middle;whiteSpace=wrap;rounded=0;" vertex="1" parent="1">
          <mxGeometry x="-235" y="420" width="60" height="30" as="geometry" />
        </mxCell>
        <mxCell id="Py8-zLNTl4ygqs_AsnGb-22" value="" style="shape=ext;double=1;rounded=1;whiteSpace=wrap;html=1;" vertex="1" parent="1">
          <mxGeometry x="-234" y="520" width="159" height="30" as="geometry" />
        </mxCell>
        <mxCell id="Py8-zLNTl4ygqs_AsnGb-23" value="Cidade:" style="text;html=1;align=center;verticalAlign=middle;whiteSpace=wrap;rounded=0;" vertex="1" parent="1">
          <mxGeometry x="-235" y="490" width="60" height="30" as="geometry" />
        </mxCell>
        <mxCell id="Py8-zLNTl4ygqs_AsnGb-24" value="" style="shape=ext;double=1;rounded=1;whiteSpace=wrap;html=1;" vertex="1" parent="1">
          <mxGeometry x="-63" y="520" width="159" height="30" as="geometry" />
        </mxCell>
        <mxCell id="Py8-zLNTl4ygqs_AsnGb-26" value="Bairro:" style="text;html=1;align=center;verticalAlign=middle;whiteSpace=wrap;rounded=0;" vertex="1" parent="1">
          <mxGeometry x="-70" y="490" width="60" height="30" as="geometry" />
        </mxCell>
        <mxCell id="Py8-zLNTl4ygqs_AsnGb-27" value="" style="shape=ext;double=1;rounded=1;whiteSpace=wrap;html=1;" vertex="1" parent="1">
          <mxGeometry x="105" y="520" width="41" height="30" as="geometry" />
        </mxCell>
        <mxCell id="Py8-zLNTl4ygqs_AsnGb-29" value="Nº:" style="text;html=1;align=center;verticalAlign=middle;whiteSpace=wrap;rounded=0;" vertex="1" parent="1">
          <mxGeometry x="86" y="490" width="60" height="30" as="geometry" />
        </mxCell>
        <mxCell id="gpuXZhoECQObQbuQT0o2-20" value="" style="shape=ext;double=1;rounded=1;whiteSpace=wrap;html=1;" vertex="1" parent="1">
          <mxGeometry x="-233.5" y="620" width="379" height="205" as="geometry" />
        </mxCell>
        <mxCell id="gpuXZhoECQObQbuQT0o2-21" value="Matéria Prima:" style="text;html=1;align=center;verticalAlign=middle;whiteSpace=wrap;rounded=0;" vertex="1" parent="1">
          <mxGeometry x="-226" y="585" width="110" height="30" as="geometry" />
        </mxCell>
        <mxCell id="gpuXZhoECQObQbuQT0o2-22" value="&lt;font style=&quot;font-size: 20px;&quot;&gt;+&lt;/font&gt;" style="rounded=1;whiteSpace=wrap;html=1;" vertex="1" parent="1">
          <mxGeometry x="96" y="580" width="30" height="30" as="geometry" />
        </mxCell>
        <mxCell id="gpuXZhoECQObQbuQT0o2-27" value="" style="line;strokeWidth=2;html=1;" vertex="1" parent="1">
          <mxGeometry x="-234" y="670" width="379" height="10" as="geometry" />
        </mxCell>
        <mxCell id="gpuXZhoECQObQbuQT0o2-28" value="" style="line;strokeWidth=2;html=1;" vertex="1" parent="1">
          <mxGeometry x="-230" y="717.5" width="375" height="10" as="geometry" />
        </mxCell>
        <mxCell id="gpuXZhoECQObQbuQT0o2-29" value="" style="line;strokeWidth=2;html=1;" vertex="1" parent="1">
          <mxGeometry x="-234.5" y="770" width="381" height="10" as="geometry" />
        </mxCell>
        <mxCell id="vkjxo4mMHkR7zIED31mD-1" value="     " style="shape=waypoint;sketch=0;fillStyle=solid;size=6;pointerEvents=1;points=[];fillColor=none;resizable=0;rotatable=0;perimeter=centerPerimeter;snapToPoint=1;" vertex="1" parent="1">
          <mxGeometry x="-215" y="640" width="20" height="20" as="geometry" />
        </mxCell>
        <mxCell id="vkjxo4mMHkR7zIED31mD-2" value="" style="shape=waypoint;sketch=0;fillStyle=solid;size=6;pointerEvents=1;points=[];fillColor=none;resizable=0;rotatable=0;perimeter=centerPerimeter;snapToPoint=1;" vertex="1" parent="1">
          <mxGeometry x="-215" y="690" width="20" height="20" as="geometry" />
        </mxCell>
        <mxCell id="vkjxo4mMHkR7zIED31mD-3" value="" style="shape=waypoint;sketch=0;fillStyle=solid;size=6;pointerEvents=1;points=[];fillColor=none;resizable=0;rotatable=0;perimeter=centerPerimeter;snapToPoint=1;" vertex="1" parent="1">
          <mxGeometry x="-215" y="740" width="20" height="20" as="geometry" />
        </mxCell>
        <mxCell id="vkjxo4mMHkR7zIED31mD-4" value="" style="shape=waypoint;sketch=0;fillStyle=solid;size=6;pointerEvents=1;points=[];fillColor=none;resizable=0;rotatable=0;perimeter=centerPerimeter;snapToPoint=1;" vertex="1" parent="1">
          <mxGeometry x="-215" y="790" width="20" height="20" as="geometry" />
        </mxCell>
        <mxCell id="qDdjBFGEMJkv1cvjC0Xu-1" value="" style="shape=ext;double=1;rounded=1;whiteSpace=wrap;html=1;fillColor=#dae8fc;strokeColor=#6c8ebf;glass=1;" vertex="1" parent="1">
          <mxGeometry x="299" y="220" width="890" height="590" as="geometry" />
        </mxCell>
        <mxCell id="qDdjBFGEMJkv1cvjC0Xu-4" value="Cadastrar fornecedor" style="text;strokeColor=none;fillColor=none;html=1;fontSize=24;fontStyle=1;verticalAlign=middle;align=center;" vertex="1" parent="1">
          <mxGeometry x="694" y="230" width="100" height="40" as="geometry" />
        </mxCell>
        <mxCell id="qDdjBFGEMJkv1cvjC0Xu-11" value="" style="shape=link;html=1;rounded=0;" edge="1" parent="1">
          <mxGeometry width="100" relative="1" as="geometry">
            <mxPoint x="604" y="270" as="sourcePoint" />
            <mxPoint x="884" y="270" as="targetPoint" />
          </mxGeometry>
        </mxCell>
      </root>
    </mxGraphModel>
  </diagram>
  <diagram id="FekVxp7_sm6xnCLvO8N-" name="Página-6">
    <mxGraphModel dx="1403" dy="782" grid="1" gridSize="10" guides="1" tooltips="1" connect="1" arrows="1" fold="1" page="1" pageScale="1" pageWidth="827" pageHeight="1169" math="0" shadow="0">
      <root>
        <mxCell id="0" />
        <mxCell id="1" parent="0" />
        <mxCell id="xq-trUuBfw3_hCVQ8VGQ-1" value="" style="shape=ext;double=1;rounded=1;whiteSpace=wrap;html=1;fillColor=#dae8fc;strokeColor=#6c8ebf;shadow=0;glass=1;arcSize=13;" vertex="1" parent="1">
          <mxGeometry x="196" y="120" width="450" height="800" as="geometry" />
        </mxCell>
        <mxCell id="xq-trUuBfw3_hCVQ8VGQ-2" value="CADASTRAR-SE" style="shape=ext;double=1;rounded=1;whiteSpace=wrap;html=1;shadow=0;fillColor=#66B2FF;strokeColor=#330000;" vertex="1" parent="1">
          <mxGeometry x="349" y="770" width="152" height="30" as="geometry" />
        </mxCell>
        <mxCell id="xq-trUuBfw3_hCVQ8VGQ-3" value="" style="shape=link;html=1;rounded=0;" edge="1" parent="1">
          <mxGeometry width="100" relative="1" as="geometry">
            <mxPoint x="285" y="170" as="sourcePoint" />
            <mxPoint x="565" y="170" as="targetPoint" />
          </mxGeometry>
        </mxCell>
        <mxCell id="xq-trUuBfw3_hCVQ8VGQ-4" value="" style="endArrow=none;html=1;rounded=0;" edge="1" parent="1">
          <mxGeometry width="50" height="50" relative="1" as="geometry">
            <mxPoint x="339.72999999999996" y="810" as="sourcePoint" />
            <mxPoint x="504.28" y="810" as="targetPoint" />
          </mxGeometry>
        </mxCell>
        <mxCell id="xq-trUuBfw3_hCVQ8VGQ-5" value="Cadastro de Estoque" style="text;strokeColor=none;fillColor=none;html=1;fontSize=24;fontStyle=1;verticalAlign=middle;align=center;" vertex="1" parent="1">
          <mxGeometry x="369" y="130" width="100" height="40" as="geometry" />
        </mxCell>
        <mxCell id="xq-trUuBfw3_hCVQ8VGQ-6" value="" style="shape=ext;double=1;rounded=1;whiteSpace=wrap;html=1;" vertex="1" parent="1">
          <mxGeometry x="230" y="230" width="110" height="30" as="geometry" />
        </mxCell>
        <mxCell id="xq-trUuBfw3_hCVQ8VGQ-7" value="" style="shape=ext;double=1;rounded=1;whiteSpace=wrap;html=1;" vertex="1" parent="1">
          <mxGeometry x="501" y="230" width="119" height="30" as="geometry" />
        </mxCell>
        <mxCell id="xq-trUuBfw3_hCVQ8VGQ-8" value="" style="shape=ext;double=1;rounded=1;whiteSpace=wrap;html=1;" vertex="1" parent="1">
          <mxGeometry x="358" y="230" width="126" height="30" as="geometry" />
        </mxCell>
        <mxCell id="xq-trUuBfw3_hCVQ8VGQ-9" value="Nome do produto:" style="text;html=1;align=center;verticalAlign=middle;whiteSpace=wrap;rounded=0;" vertex="1" parent="1">
          <mxGeometry x="230" y="200" width="110" height="30" as="geometry" />
        </mxCell>
        <mxCell id="xq-trUuBfw3_hCVQ8VGQ-10" value="Fornecedor:" style="text;html=1;align=center;verticalAlign=middle;whiteSpace=wrap;rounded=0;" vertex="1" parent="1">
          <mxGeometry x="510" y="200" width="60" height="30" as="geometry" />
        </mxCell>
        <mxCell id="xq-trUuBfw3_hCVQ8VGQ-11" value="Código do sistema:" style="text;html=1;align=center;verticalAlign=middle;whiteSpace=wrap;rounded=0;" vertex="1" parent="1">
          <mxGeometry x="356.5" y="200" width="125" height="30" as="geometry" />
        </mxCell>
        <mxCell id="xq-trUuBfw3_hCVQ8VGQ-12" value="" style="shape=ext;double=1;rounded=1;whiteSpace=wrap;html=1;" vertex="1" parent="1">
          <mxGeometry x="230" y="310" width="110" height="30" as="geometry" />
        </mxCell>
        <mxCell id="xq-trUuBfw3_hCVQ8VGQ-13" value="" style="shape=ext;double=1;rounded=1;whiteSpace=wrap;html=1;" vertex="1" parent="1">
          <mxGeometry x="364" y="310" width="110" height="30" as="geometry" />
        </mxCell>
        <mxCell id="xq-trUuBfw3_hCVQ8VGQ-14" value="" style="shape=ext;double=1;rounded=1;whiteSpace=wrap;html=1;" vertex="1" parent="1">
          <mxGeometry x="501" y="310" width="110" height="30" as="geometry" />
        </mxCell>
        <mxCell id="xq-trUuBfw3_hCVQ8VGQ-15" value="Preço de custo:" style="text;html=1;align=center;verticalAlign=middle;whiteSpace=wrap;rounded=0;" vertex="1" parent="1">
          <mxGeometry x="230" y="280" width="100" height="30" as="geometry" />
        </mxCell>
        <mxCell id="xq-trUuBfw3_hCVQ8VGQ-16" value="Código do produto:" style="text;html=1;align=center;verticalAlign=middle;whiteSpace=wrap;rounded=0;" vertex="1" parent="1">
          <mxGeometry x="364" y="280" width="106" height="30" as="geometry" />
        </mxCell>
        <mxCell id="xq-trUuBfw3_hCVQ8VGQ-17" value="Marca:" style="text;html=1;align=center;verticalAlign=middle;whiteSpace=wrap;rounded=0;" vertex="1" parent="1">
          <mxGeometry x="501" y="280" width="60" height="30" as="geometry" />
        </mxCell>
        <mxCell id="xq-trUuBfw3_hCVQ8VGQ-18" value="" style="shape=ext;double=1;rounded=1;whiteSpace=wrap;html=1;" vertex="1" parent="1">
          <mxGeometry x="231" y="380" width="150" height="30" as="geometry" />
        </mxCell>
        <mxCell id="xq-trUuBfw3_hCVQ8VGQ-20" value="" style="shape=ext;double=1;rounded=1;whiteSpace=wrap;html=1;" vertex="1" parent="1">
          <mxGeometry x="426.5" y="380" width="110" height="30" as="geometry" />
        </mxCell>
        <mxCell id="xq-trUuBfw3_hCVQ8VGQ-21" value="Código do Fornecedor:" style="text;html=1;align=center;verticalAlign=middle;whiteSpace=wrap;rounded=0;" vertex="1" parent="1">
          <mxGeometry x="230" y="350" width="140" height="30" as="geometry" />
        </mxCell>
        <mxCell id="xq-trUuBfw3_hCVQ8VGQ-23" value="Preço de custo:" style="text;html=1;align=center;verticalAlign=middle;whiteSpace=wrap;rounded=0;" vertex="1" parent="1">
          <mxGeometry x="426.5" y="350" width="98.5" height="30" as="geometry" />
        </mxCell>
        <mxCell id="xq-trUuBfw3_hCVQ8VGQ-24" value="" style="shape=ext;double=1;rounded=1;whiteSpace=wrap;html=1;" vertex="1" parent="1">
          <mxGeometry x="231" y="450" width="380" height="30" as="geometry" />
        </mxCell>
        <mxCell id="xq-trUuBfw3_hCVQ8VGQ-25" value="Email:" style="text;html=1;align=center;verticalAlign=middle;whiteSpace=wrap;rounded=0;" vertex="1" parent="1">
          <mxGeometry x="230" y="420" width="60" height="30" as="geometry" />
        </mxCell>
        <mxCell id="xq-trUuBfw3_hCVQ8VGQ-26" value="" style="shape=ext;double=1;rounded=1;whiteSpace=wrap;html=1;" vertex="1" parent="1">
          <mxGeometry x="231" y="520" width="129" height="30" as="geometry" />
        </mxCell>
        <mxCell id="xq-trUuBfw3_hCVQ8VGQ-27" value="Unidade:" style="text;html=1;align=center;verticalAlign=middle;whiteSpace=wrap;rounded=0;" vertex="1" parent="1">
          <mxGeometry x="195" y="490" width="130" height="30" as="geometry" />
        </mxCell>
        <mxCell id="xq-trUuBfw3_hCVQ8VGQ-28" value="" style="shape=ext;double=1;rounded=1;whiteSpace=wrap;html=1;" vertex="1" parent="1">
          <mxGeometry x="381" y="520" width="108" height="30" as="geometry" />
        </mxCell>
        <mxCell id="xq-trUuBfw3_hCVQ8VGQ-29" value="Peso Líquido (Kg):" style="text;html=1;align=center;verticalAlign=middle;whiteSpace=wrap;rounded=0;" vertex="1" parent="1">
          <mxGeometry x="366" y="490" width="135" height="30" as="geometry" />
        </mxCell>
        <mxCell id="xq-trUuBfw3_hCVQ8VGQ-30" value="" style="shape=ext;double=1;rounded=1;whiteSpace=wrap;html=1;" vertex="1" parent="1">
          <mxGeometry x="520" y="520" width="100" height="30" as="geometry" />
        </mxCell>
        <mxCell id="xq-trUuBfw3_hCVQ8VGQ-31" value="Peso Bruto:" style="text;html=1;align=center;verticalAlign=middle;whiteSpace=wrap;rounded=0;" vertex="1" parent="1">
          <mxGeometry x="510" y="490" width="91" height="30" as="geometry" />
        </mxCell>
        <mxCell id="xq-trUuBfw3_hCVQ8VGQ-32" value="" style="verticalLabelPosition=bottom;verticalAlign=top;html=1;shape=mxgraph.basic.x;fillColor=#CC0000;" vertex="1" parent="1">
          <mxGeometry x="290.5" y="660" width="39.5" height="40" as="geometry" />
        </mxCell>
        <mxCell id="xq-trUuBfw3_hCVQ8VGQ-33" value="" style="verticalLabelPosition=bottom;verticalAlign=top;html=1;shape=mxgraph.basic.tick;fillColor=#006633;" vertex="1" parent="1">
          <mxGeometry x="501" y="660" width="40" height="40" as="geometry" />
        </mxCell>
        <mxCell id="xq-trUuBfw3_hCVQ8VGQ-34" value="APAGAR" style="text;html=1;align=center;verticalAlign=middle;whiteSpace=wrap;rounded=0;" vertex="1" parent="1">
          <mxGeometry x="264" y="710" width="100" height="30" as="geometry" />
        </mxCell>
        <mxCell id="xq-trUuBfw3_hCVQ8VGQ-35" value="SALVAR" style="text;html=1;align=center;verticalAlign=middle;whiteSpace=wrap;rounded=0;" vertex="1" parent="1">
          <mxGeometry x="466" y="710" width="110" height="30" as="geometry" />
        </mxCell>
      </root>
    </mxGraphModel>
  </diagram>
  <diagram id="enALlYUilS1F46X1ubHu" name="Página-7">
    <mxGraphModel grid="1" page="1" gridSize="10" guides="1" tooltips="1" connect="1" arrows="1" fold="1" pageScale="1" pageWidth="827" pageHeight="1169" math="0" shadow="0">
      <root>
        <mxCell id="0" />
        <mxCell id="1" parent="0" />
      </root>
    </mxGraphModel>
  </diagram>
  <diagram id="SzTMkZSBMFOkF-sgQygX" name="Página-8">
    <mxGraphModel grid="1" page="1" gridSize="10" guides="1" tooltips="1" connect="1" arrows="1" fold="1" pageScale="1" pageWidth="827" pageHeight="1169" math="0" shadow="0">
      <root>
        <mxCell id="0" />
        <mxCell id="1" parent="0" />
      </root>
    </mxGraphModel>
  </diagram>
  <diagram id="EDOU8PfOjzubiAQet0Hv" name="Página-9">
    <mxGraphModel grid="1" page="1" gridSize="10" guides="1" tooltips="1" connect="1" arrows="1" fold="1" pageScale="1" pageWidth="827" pageHeight="1169" math="0" shadow="0">
      <root>
        <mxCell id="0" />
        <mxCell id="1" parent="0" />
      </root>
    </mxGraphModel>
  </diagram>
</mxfile>
